<svg id="Group_10" data-name="Group 10" xmlns="http://www.w3.org/2000/svg" viewBox="0 0 1693.315 553.939">
  <defs>
    <style>
      .cls-1 {
        fill: #fbba2c;
      }
    </style>
  </defs>
  <g id="Group_8" data-name="Group 8">
    <g id="Group_6" data-name="Group 6" transform="translate(898.25 147.355)">
      <path id="Path_9" data-name="Path 9" class="cls-1" d="M454.832,165.246H351.647v42.36h43.084v9.413c0,16.654-13.4,30.412-29.688,30.412h-13.4c-16.292,0-28.24-5.793-36.567-17.741s-7.6-31.5-7.6-53.584V159.453c-.362-39.826,13.4-58.652,43.808-58.652,21.361,0,34.395,9.413,40.188,28.964h61.549c-2.9-24.982-11.224-44.894-24.981-60.1C410.3,50.475,384.956,40.7,351.285,40.7s-59.376,9.775-76.755,28.964c-17.741,19.189-26.43,47.067-26.43,82.548v46.7c.362,35.481,10.137,62.273,28.6,80.737s40.912,27.878,74.583,27.878,56.118-9.413,74.583-27.878c17.016-17.016,26.43-40.912,28.24-72.048h0v-.724c0-2.534.362-5.069.362-7.965V165.246Z" transform="translate(-248.1 -40.7)"/>
      <path id="Path_10" data-name="Path 10" class="cls-1" d="M464.065,41.6v97.03H375V41.6H314.9V301.553H375V198.73h89.065V301.553H523.8V41.6Z" transform="translate(-73.049 -38.341)"/>
      <path id="Path_11" data-name="Path 11" class="cls-1" d="M589.456,41.6H382v60.1h73.5V301.553h60.463V101.7h73.5Z" transform="translate(102.787 -38.341)"/>
    </g>
    <path id="Path_12" data-name="Path 12" class="cls-1" d="M304.155,192.738c28.6-13.758,43.084-38.015,43.084-72.41,0-24.982-8.327-44.532-24.62-58.29S282.794,41.4,252.744,41.4H156.8V301.715h60.1V205.047h29.688l44.894,96.668h65.893Zm-27.878-53.584c-6.155,3.983-14.844,5.793-27.154,5.793H216.9V101.5h32.947c23.171,0,35.119,7.241,35.119,21.361A18,18,0,0,1,276.277,139.154Z" transform="translate(410.897 108.489)"/>
    <path id="Path_13" data-name="Path 13" class="cls-1" d="M281.8,301.453H221.7V41.5h60.1Z" transform="translate(580.968 108.751)"/>
    <g id="Group_7" data-name="Group 7">
      <path id="Path_14" data-name="Path 14" class="cls-1" d="M530.406,166.182,470.667,410.2l-47.429.362L375.81,410.2,349.38,301.951,322.95,410.2l-47.429.362-47.429-.362L164.371,150.251h74.583L275.521,285.3l36.567-135.045h74.583L423.6,285.3l36.567-135.045h63C476.822,61.549,383.413,0,276.969,0,123.822,0,0,123.822,0,276.969,0,429.755,123.822,553.939,276.969,553.939c152.786,0,276.969-123.822,276.969-276.969A282.377,282.377,0,0,0,530.406,166.182Z"/>
    </g>
  </g>
  <g id="Group_9" data-name="Group 9" transform="translate(1611.13 124.908)">
    <path id="Path_15" data-name="Path 15" class="cls-1" d="M479.033,42.1h-12.31V75.412h-9.776V42.1H445V34.5h34.033Z" transform="translate(-445 -34.5)"/>
    <path id="Path_16" data-name="Path 16" class="cls-1" d="M468.01,34.5l9.051,28.24,9.051-28.24h13.034V75.412h-9.776V66l1.086-19.551-9.776,28.964h-6.517l-9.775-28.964L465.475,66v9.413H455.7V34.5Z" transform="translate(-416.961 -34.5)"/>
  </g>
</svg>
