<svg xmlns="http://www.w3.org/2000/svg" viewBox="0 0 1625.227 531.665">
  <defs>
    <style>
      .cls-1 {
        fill: #fff;
      }
    </style>
  </defs>
  <g id="Group_20" data-name="Group 20" transform="translate(0)">
    <g id="Group_18" data-name="Group 18">
      <g id="Group_16" data-name="Group 16" transform="translate(862.131 141.43)">
        <path id="Path_25" data-name="Path 25" class="cls-1" d="M446.519,160.238H347.483v40.657h41.352v9.035c0,15.985-12.857,29.189-28.495,29.189H347.483c-15.637,0-27.1-5.56-35.1-17.027s-7.3-30.232-7.3-51.429V154.678c-.348-38.224,12.857-56.294,42.047-56.294,20.5,0,33.012,9.035,38.572,27.8h59.074C442,102.206,434.009,83.094,420.8,68.5c-17.027-18.417-41.352-27.8-73.669-27.8s-56.989,9.382-73.669,27.8C256.44,86.917,248.1,113.674,248.1,147.728v44.827c.348,34.054,9.73,59.769,27.452,77.491S314.819,296.8,347.136,296.8s53.862-9.035,71.584-26.757c16.332-16.332,25.367-39.267,27.1-69.151h0V200.2c0-2.432.348-4.865.348-7.645V160.238Z" transform="translate(-248.1 -40.7)"/>
        <path id="Path_26" data-name="Path 26" class="cls-1" d="M458.067,41.6v93.128H372.584V41.6H314.9V291.1h57.684V192.412h85.483V291.1H515.4V41.6Z" transform="translate(-82.774 -38.473)"/>
        <path id="Path_27" data-name="Path 27" class="cls-1" d="M581.114,41.6H382V99.284h70.541V291.1h58.031V99.284h70.541Z" transform="translate(83.294 -38.473)"/>
      </g>
      <path id="Path_28" data-name="Path 28" class="cls-1" d="M298.23,186.652c27.452-13.2,41.352-36.487,41.352-69.5,0-23.977-7.992-42.742-23.63-55.946S277.728,41.4,248.886,41.4H156.8V291.248h57.684V198.467h28.495l43.089,92.781h63.244Zm-26.757-51.429c-5.907,3.822-14.247,5.56-26.062,5.56H214.484v-41.7h31.622c22.24,0,33.707,6.95,33.707,20.5A17.276,17.276,0,0,1,271.473,135.223Z" transform="translate(388.07 102.462)"/>
      <path id="Path_29" data-name="Path 29" class="cls-1" d="M279.384,291H221.7V41.5h57.684Z" transform="translate(548.693 102.71)"/>
      <g id="Group_17" data-name="Group 17">
        <path id="Path_30" data-name="Path 30" class="cls-1" d="M509.078,159.5,451.742,393.71l-45.522.348L360.7,393.71l-25.367-103.9-25.367,103.9-45.522.348-45.522-.348-61.159-249.5h71.584l35.1,129.615,35.1-129.615h71.584l35.444,129.615,35.1-129.615h60.464C457.649,59.074,368,0,265.833,0,118.843,0,0,118.843,0,265.833,0,412.475,118.843,531.665,265.833,531.665c146.642,0,265.833-118.843,265.833-265.833A271.024,271.024,0,0,0,509.078,159.5Z"/>
      </g>
    </g>
    <g id="Group_19" data-name="Group 19" transform="translate(1546.346 119.885)">
      <path id="Path_31" data-name="Path 31" class="cls-1" d="M477.664,41.8H465.849V73.767h-9.382V41.8H445V34.5h32.664Z" transform="translate(-445 -34.5)"/>
      <path id="Path_32" data-name="Path 32" class="cls-1" d="M467.515,34.5,476.2,61.6l8.687-27.1H497.4V73.767h-9.382V64.732l1.042-18.765-9.382,27.8h-6.255l-9.382-27.8,1.042,18.765v9.035H455.7V34.5Z" transform="translate(-418.518 -34.5)"/>
    </g>
  </g>
</svg>
