<svg xmlns="http://www.w3.org/2000/svg" viewBox="0 0 1738.634 568.764">
  <defs>
    <style>
      .cls-1 {
        fill: #231f20;
      }
    </style>
  </defs>
  <g id="Group_5" data-name="Group 5" transform="translate(0)">
    <g id="Group_3" data-name="Group 3">
      <g id="Group_1" data-name="Group 1" transform="translate(922.29 151.299)">
        <path id="Path_1" data-name="Path 1" class="cls-1" d="M460.364,168.579H354.418v43.494h44.237v9.665c0,17.1-13.754,31.226-30.483,31.226H354.418c-16.728,0-29-5.948-37.546-18.215s-7.807-32.341-7.807-55.018v-17.1c-.372-40.892,13.754-60.222,44.981-60.222,21.933,0,35.315,9.665,41.263,29.739h63.2c-2.974-25.65-11.524-46.1-25.65-61.709C414.64,50.737,388.618,40.7,354.046,40.7s-60.966,10.037-78.809,29.739C257.022,90.142,248.1,118.766,248.1,155.2v47.955c.372,36.431,10.409,63.94,29.368,82.9s42.007,28.624,76.579,28.624,57.62-9.665,76.579-28.624c17.472-17.472,27.137-42.007,29-73.977h0v-.743c0-2.6.372-5.2.372-8.178V168.579Z" transform="translate(-248.1 -40.7)"/>
        <path id="Path_2" data-name="Path 2" class="cls-1" d="M468.057,41.6v99.627H376.609V41.6H314.9V308.51h61.709V202.936h91.448V308.51h61.337V41.6Z" transform="translate(-66.577 -38.254)"/>
        <path id="Path_3" data-name="Path 3" class="cls-1" d="M595.008,41.6H382v61.709h75.463v205.2h62.081v-205.2h75.464Z" transform="translate(115.762 -38.254)"/>
      </g>
      <path id="Path_4" data-name="Path 4" class="cls-1" d="M308.1,196.788c29.368-14.126,44.237-39.033,44.237-74.348,0-25.65-8.55-45.724-25.278-59.85S286.166,41.4,255.311,41.4H156.8V308.682h61.709V209.427h30.483l46.1,99.255h67.657ZM279.475,141.77c-6.32,4.089-15.241,5.948-27.881,5.948H218.509V103.109h33.828c23.791,0,36.059,7.435,36.059,21.933A18.481,18.481,0,0,1,279.475,141.77Z" transform="translate(426.09 112.501)"/>
      <path id="Path_5" data-name="Path 5" class="cls-1" d="M283.409,308.41H221.7V41.5h61.709Z" transform="translate(602.45 112.773)"/>
      <g id="Group_2" data-name="Group 2">
        <path id="Path_6" data-name="Path 6" class="cls-1" d="M544.6,170.629,483.264,421.183l-48.7.372-48.7-.372L358.73,310.032,331.593,421.183l-48.7.372-48.7-.372-65.426-266.91h76.579L282.9,292.932l37.546-138.659H397.02l37.918,138.659,37.546-138.659h64.683C489.583,63.2,393.674,0,284.382,0,127.135,0,0,127.135,0,284.382,0,441.257,127.135,568.764,284.382,568.764c156.875,0,284.382-127.135,284.382-284.382A289.934,289.934,0,0,0,544.6,170.629Z"/>
      </g>
    </g>
    <g id="Group_4" data-name="Group 4" transform="translate(1654.248 128.251)">
      <path id="Path_7" data-name="Path 7" class="cls-1" d="M479.944,42.307H467.3v34.2H457.267v-34.2H445V34.5h34.944Z" transform="translate(-445 -34.5)"/>
      <path id="Path_8" data-name="Path 8" class="cls-1" d="M468.339,34.5l9.294,29,9.294-29h13.383V76.507H490.272V66.841l1.115-20.074L481.35,76.507h-6.691L464.622,46.767l1.115,20.074v9.665H455.7V34.5Z" transform="translate(-415.924 -34.5)"/>
    </g>
  </g>
</svg>
